<svg width="110" height="110" viewBox="0 0 110 110" fill="none" xmlns="http://www.w3.org/2000/svg">
<rect width="110" height="110" rx="55" fill="#ED5E4A"/>
<path d="M31.4102 85.9071L27.8719 89.4454L21.9305 83.504L23.2688 82.1658L28.1246 87.0216L30.3247 84.8216L31.4102 85.9071ZM34.3104 77.861C36.0948 79.6453 36.1555 81.3689 34.4927 83.0317C32.8796 84.6448 31.2016 84.5799 29.4587 82.837L26.0281 79.4064L27.3705 78.064L30.8177 81.5112C31.7789 82.4724 32.6352 82.5773 33.3865 81.826C34.124 81.0886 34.0287 80.2558 33.1006 79.3277L29.6037 75.8308L30.942 74.4926L34.3104 77.861ZM42.2281 74.6666C42.0043 75.3102 41.5431 75.9814 40.8442 76.6802C39.9327 77.5917 38.948 78.0405 37.8901 78.0267C36.8322 78.0129 35.8572 77.5599 34.965 76.6678C34.0149 75.7176 33.537 74.6542 33.5315 73.4775C33.5287 72.2981 33.9955 71.2402 34.9319 70.3038C35.5119 69.7237 36.074 69.308 36.6182 69.0567L37.9067 70.3452C37.2714 70.5054 36.6997 70.8397 36.1914 71.3479C35.6335 71.9058 35.3586 72.5315 35.3669 73.2248C35.3752 73.9181 35.6791 74.5644 36.2784 75.1638C36.853 75.7383 37.4731 76.0352 38.1387 76.0546C38.8016 76.0711 39.4066 75.806 39.9535 75.2591C40.4755 74.737 40.8263 74.1321 41.0058 73.4443L42.2281 74.6666ZM48.6998 68.6175L47.2414 70.0759L45.4971 69.1768L43.384 71.2899L44.2872 73.03L42.8371 74.4801L39.0585 66.376L40.6454 64.7892L48.6998 68.6175ZM44.163 68.4559L41.5279 67.097C41.3318 66.9948 41.1205 66.8497 40.894 66.6619L40.8608 66.6951C41.021 66.8829 41.1591 67.0901 41.2751 67.3165L42.6424 69.9765L44.163 68.4559ZM48.9401 67.9215L47.6142 66.5956C48.0562 66.557 48.4691 66.4479 48.8531 66.2683C49.2342 66.086 49.5685 65.8512 49.8557 65.564C50.0242 65.3955 50.1554 65.2339 50.2493 65.0792C50.346 64.9218 50.4095 64.7754 50.4399 64.64C50.4703 64.4992 50.4703 64.3721 50.4399 64.2589C50.4068 64.1429 50.3474 64.042 50.2617 63.9564C50.1457 63.8404 50.009 63.77 49.8516 63.7451C49.6941 63.7202 49.5187 63.7272 49.3254 63.7658C49.1348 63.8017 48.9249 63.8625 48.6956 63.9481C48.4664 64.0337 48.2233 64.1304 47.9664 64.2381C47.309 64.5088 46.7262 64.6193 46.218 64.5696C45.7125 64.5171 45.2623 64.2934 44.8673 63.8984C44.5579 63.589 44.3549 63.2617 44.2582 62.9165C44.1588 62.5684 44.1436 62.2163 44.2127 61.8599C44.2845 61.5009 44.4281 61.1473 44.6436 60.7993C44.8562 60.4485 45.12 60.1157 45.4349 59.8008C45.7443 59.4914 46.0371 59.2373 46.3133 59.0384C46.5895 58.834 46.8671 58.6697 47.1461 58.5454L48.3849 59.7842C48.2164 59.8146 48.0465 59.8629 47.8753 59.9292C47.7068 59.9927 47.5438 60.0701 47.3864 60.1612C47.2262 60.2496 47.0756 60.3477 46.9348 60.4554C46.7966 60.5604 46.6724 60.6681 46.5619 60.7786C46.4099 60.9305 46.287 61.0838 46.1931 61.2385C46.0964 61.3904 46.0315 61.5354 45.9984 61.6735C45.9652 61.8116 45.9625 61.9414 45.9901 62.063C46.015 62.1817 46.073 62.2867 46.1641 62.3778C46.2636 62.4773 46.3796 62.5408 46.5121 62.5684C46.642 62.5933 46.7911 62.5933 46.9596 62.5684C47.1253 62.5408 47.3118 62.4925 47.5189 62.4234C47.7233 62.3516 47.9485 62.2646 48.1943 62.1624C48.5313 62.0243 48.8503 61.918 49.1514 61.8434C49.4524 61.7633 49.7411 61.726 50.0173 61.7315C50.2935 61.737 50.5587 61.795 50.8128 61.9055C51.0641 62.0132 51.31 62.1873 51.5503 62.4276C51.8817 62.759 52.0972 63.1015 52.1966 63.4551C52.2961 63.8031 52.3085 64.1553 52.2339 64.5116C52.1566 64.8652 52.0047 65.2159 51.7782 65.564C51.5544 65.9092 51.2837 66.2407 50.9661 66.5583C50.6402 66.8843 50.3018 67.1674 49.951 67.4077C49.603 67.6452 49.266 67.8165 48.9401 67.9215ZM61.6846 55.6327L60.3422 56.9751L57.9225 54.5555L55.4615 57.0165L57.8811 59.4362L56.5428 60.7744L50.6015 54.8331L51.9397 53.4948L54.3097 55.8647L56.7707 53.4037L54.4008 51.0338L55.7432 49.6914L61.6846 55.6327ZM65.662 51.8624C64.8113 52.7131 63.8418 53.1302 62.7535 53.1136C61.6625 53.0943 60.6722 52.6399 59.7828 51.7505C58.8437 50.8114 58.3562 49.7797 58.3203 48.6556C58.2844 47.5314 58.7153 46.5204 59.613 45.6227C60.4609 44.7748 61.4235 44.3673 62.5008 44.4005C63.5808 44.4309 64.5751 44.9004 65.4839 45.8092C66.4175 46.7428 66.8981 47.7675 66.9257 48.8834C66.9561 49.9966 66.5349 50.9896 65.662 51.8624ZM60.7275 46.8118C60.2579 47.2814 60.0618 47.8311 60.1391 48.4608C60.2137 49.0878 60.541 49.6914 61.1211 50.2714C61.7094 50.8597 62.3129 51.1871 62.9317 51.2533C63.5504 51.3196 64.0835 51.129 64.5309 50.6816C64.9922 50.2203 65.1925 49.6886 65.1317 49.0865C65.0682 48.4815 64.7409 47.8835 64.1498 47.2924C63.5338 46.6765 62.9234 46.3285 62.3185 46.2484C61.7136 46.1683 61.1832 46.3561 60.7275 46.8118ZM74.8309 42.4863L73.4803 43.837L67.2986 42.5526C66.9368 42.478 66.673 42.4131 66.5072 42.3579L66.4907 42.3745C66.7227 42.5623 67.0542 42.8716 67.485 43.3025L70.7499 46.5674L69.4862 47.8311L63.5449 41.8897L64.9867 40.4479L70.9612 41.7074C71.2319 41.7626 71.4929 41.8248 71.7443 41.8938L71.7608 41.8773C71.6006 41.7613 71.3175 41.5002 70.9115 41.0942L67.6259 37.8086L68.8896 36.545L74.8309 42.4863ZM76.1899 41.1274L70.2486 35.186L72.3533 33.0813C74.4636 30.971 76.4841 30.8812 78.4148 32.8119C79.3401 33.7373 79.7904 34.7648 79.7655 35.8945C79.7434 37.0214 79.2531 38.0641 78.2947 39.0226L76.1899 41.1274ZM72.6765 34.9374L76.4427 38.7036L77.1056 38.0407C77.6856 37.4606 77.966 36.8322 77.9466 36.1555C77.9301 35.476 77.6221 34.8366 77.0227 34.2372C76.4565 33.671 75.8474 33.3906 75.1955 33.3961C74.5437 33.3961 73.9222 33.6917 73.3311 34.2828L72.6765 34.9374ZM87.5382 29.7791L86.0797 31.2375L84.3355 30.3385L82.2224 32.4515L83.1256 34.1916L81.6755 35.6418L77.8969 27.5376L79.4838 25.9508L87.5382 29.7791ZM83.0013 29.6175L80.3663 28.2586C80.1702 28.1564 79.9588 28.0114 79.7324 27.8235L79.6992 27.8567C79.8594 28.0445 79.9975 28.2517 80.1135 28.4782L81.4808 31.1381L83.0013 29.6175ZM88.8391 28.6853C88.6237 28.9008 88.3778 29.014 88.1016 29.0251C87.8254 29.0361 87.5906 28.945 87.3973 28.7516C87.1984 28.5527 87.1086 28.3166 87.128 28.0431C87.1501 27.7669 87.2716 27.5183 87.4926 27.2973C87.7163 27.0736 87.9635 26.9562 88.2342 26.9452C88.5049 26.9286 88.7383 27.0184 88.9344 27.2145C89.136 27.4161 89.2286 27.655 89.212 27.9313C89.1954 28.2019 89.0711 28.4533 88.8391 28.6853Z" fill="white"/>
</svg>
